<?xml version="1.0" encoding="utf-8"?>
<!-- Generator: Adobe Illustrator 24.2.1, SVG Export Plug-In . SVG Version: 6.00 Build 0)  -->
<svg version="1.1" id="Layer_1" xmlns="http://www.w3.org/2000/svg" xmlns:xlink="http://www.w3.org/1999/xlink" x="0px" y="0px"
	 viewBox="0 0 512 512" style="enable-background:new 0 0 512 512;" xml:space="preserve">
<ellipse style="fill:#FFFFFF;" cx="256" cy="256" rx="256" ry="255.1"/>
<path d="M475.4,293.5c0,0-41.1-43.6-103.2-38.4c-46,3.9-55.7,11.2-59.4,13.1c-5.8,3.4-13.9,13.4-7.8,22.6c6.1,9.5,22.9,10,22.9,10
	s-43.3,18.4-59.1,63.2c-1.5,6.8-8.1,15-31.9,21.1c-23.3,5.9-67.9-18.8-53.8-30.3c22.1-18,31-27.4,40.9-36.7
	c28-26.3,24.3-69.4,22.4-84.4c-1.9-15.1-25.1-72-95.9-73.5c-62.8-1-85.2,30.2-92,38c-7.3,9.2-20.9,10.7-21.9,0.7
	c-0.5-6.8,1.2-12.9,7.3-22.6c7.3-12.2,34.1-43.1,80.3-51.1c56-9.7,93.2,3.2,130.2,32.4c37,29.2,38,65.9,112.7,72
	C411.2,232.9,451.1,256.5,475.4,293.5z"/>
<circle cx="151.8" cy="244.1" r="28.5"/>
<path style="fill:#F79818;" d="M327.5,301.2c0,0,39.9-11,72.5-11.7c25.1,0,50.4,1.2,75.4,3.9c0,0-34.6-41.1-89.1-39.7
	c-54.3,1.5-72.5,11.2-78.1,14.8c-7.3,5.6-8.8,16.1-3.2,23.6c0.2,0.5,0.7,1,1.2,1.5C311.9,298.8,319.4,301.7,327.5,301.2z"/>
</svg>
