<svg xmlns="http://www.w3.org/2000/svg" viewBox="0 0 512 512" width="100%" height="100%">
	<ellipse cx="256.2" cy="256" rx="203.9" ry="255.1" fill="#fff" stroke="#000" />
	<path d="M388.3 127.2s-16.9-17.9-42.4-15.8c-18.9 1.6-22.9 4.6-24.4 5.4-2.4 1.4-5.7 5.5-3.2 9.3 2.5 3.9 9.4 4.1 9.4 4.1s-21.7 9.7-24.5 30.4c-3.3 24.2 13.4 54.2 21.6 87.8 8.2 33.5-6.5 73.2-6.5 73.2s4.7-47.8-6.7-83c-11.6-35.9-24.1-52.4-43.6-46.8-24 7-47.5 72.7-58.7 129.8-11.3 57.2-59 136.4-59 136.4s61.7-166 50.1-200.9c-11.1-33.2-82.4 41.9-76.6 22.8 5.5-18.3 41.9-64.6 85.5-88.2 43.8-23.7 65.9-45.2 75.7-54.4 11.5-10.8 10-28.5 9.2-34.7S283.9 73 254.8 72.4C229 72 219.8 84.8 217 88c-3 3.8-8.6 4.4-9 .3-.2-2.8.5-5.3 3-9.3 3-5 14-17.7 33-21 23-4 38.3 1.3 53.5 13.3s15.6 27.1 46.3 29.6c18.1 1.4 34.5 11.1 44.5 26.3z" />
	<circle cx="255.3" cy="106.9" r="11.7" />
	<path d="M327.5 130.4s16.4-4.5 29.8-4.8c10.3 0 20.7.5 31 1.6 0 0-14.2-16.9-36.6-16.3-22.3.6-29.8 4.6-32.1 6.1-3 2.3-3.6 6.6-1.3 9.7.1.2.3.4.5.6 2.3 2.1 5.4 3.3 8.7 3.1z" fill="#f79818" />
	<path d="M198.1 453.8h92.1s-2.3-20.9-35.6-20.9-56.5 20.9-56.5 20.9z" fill="#fc9921" />
</svg>
