<svg width="811.70001" height="136.00899" version="1.1" viewBox="0 0 811.70002 136.00898" xmlns="http://www.w3.org/2000/svg">
 <g transform="translate(1.5,1.5)" fill="none" stroke="#000000" stroke-width="3">
  <g>
   <path d="m56.6 99.4h53.6v31.4h-79.6z"/>
   <path d="m85.4 0h21.4v27.8l-86 103h-20.8v-28.6z"/>
   <path d="m49.4 31.4h-47v-31.4h73.4z"/>
  </g>
  <g>
   <path d="m164.7 133c-29.9-0.3-43.2-15-43.2-41.1v-65.7h28.3v62.8c0 11.2 3.2 18.2 17.1 18.2 3.5 0 6.6-0.5 9.6-1.6-3.7 11.1-8.6 21.5-11.8 27.4z"/>
   <path d="m186.4 89v-62.8h26.2v62.8c0 27.4-15.4 42.1-41.3 43.8 4.7-8.2 15.1-32.6 15.1-43.8z"/>
  </g>
  <g>
   <path d="m262.4 26.2h7c30.4 0 39.5 13.6 39.5 32 0 24.2-15.4 38.4-46.6 38.6v-24.6h2.4c11 0 13.6-5.1 13.6-11.8 0-5.6-2.6-8.3-12.3-8.3h-3.7v-25.9z"/>
   <path d="m256.5 26.2v104.6h-28.3v-104.6z"/>
  </g>
  <g>
   <path d="m354.9 103.9h46.4v26.9h-46.4z"/>
   <path d="m354.9 26.2h46.4v26.8h-46.4z"/>
   <path d="m349 26.2v39.7h36.3v24.1h-36.3v40.8h-28.3v-104.6z"/>
  </g>
  <g>
   <path d="m450.8 26.2h7c26.7 0 39.2 9.8 39.2 30.9 0 15.8-7.2 27.7-20.3 33.8l24.5 40h-30.6l-19.8-35.5v-23.8h1.6c10.6 0 14.2-4.3 14.2-10.6 0-6.6-2.1-9-13.1-9h-2.7z"/>
   <path d="m444.8 26.2v104.6h-28.3v-104.6z"/>
  </g>
  <g>
   <path d="m565.6 99.4h53.6v31.4h-79.6z"/>
   <path d="m594.4 0h21.4v27.8l-86 103h-20.8v-28.6z"/>
   <path d="m558.4 31.4h-47v-31.4h73.4z"/>
  </g>
  <g>
   <path d="m666.5 103.9h46.4v26.9h-46.4z"/>
   <path d="m666.5 26.2h46.4v26.8h-46.4z"/>
   <path d="m660.6 26.2v39.7h36.3v24.1h-36.3v40.8h-28.3v-104.6z"/>
  </g>
  <g>
   <path d="m762.3 103.9h46.4v26.9h-46.4z"/>
   <path d="m762.3 26.2h46.4v26.8h-46.4z"/>
   <path d="m756.4 26.2v39.7h36.3v24.1h-36.3v40.8h-28.3v-104.6z"/>
  </g>
 </g>
</svg>
